<?xml version="1.0" encoding="iso-8859-1"?>
<!-- Generator: Adobe Illustrator 19.1.0, SVG Export Plug-In . SVG Version: 6.00 Build 0)  -->
<svg version="1.1" id="Layer_1" xmlns="http://www.w3.org/2000/svg" xmlns:xlink="http://www.w3.org/1999/xlink" x="0px" y="0px"
	 viewBox="0 0 1000 1000" style="enable-background:new 0 0 1000 1000;" xml:space="preserve">
<path style="fill:#FFFFFF;" d="M908.111,94.067c-34.813-19.358-78.781,0.086-108.396,20.874
	c-24.797,17.404-53.526,41.808-62.739,72.31c-24.567-12.504-53.355-17.005-79.136-5.883
	c-65.844,28.397-78.486,110.943-99.176,172.837c-95.906-8.35-185.882,18.857-255.263,87.507
	c-39.904,39.485-71.837,86.27-112.21,125.254C151.385,605.4,99.646,618.04,51.183,641.589c-2.932,1.426-3.747,3.967-3.225,6.364
	c0.57,19.3,19.211,24.698,36.018,24.975c29.3,0.493,58.378-5.179,87.741-5.382c51.678-0.363,101.139,6.964,152.153,13.797
	c35.461,4.747,71.006,7.378,106.681,8.414c7.417,29.21,24.892,54.5,35.421,82.625c-0.722-0.139-1.418-0.327-2.147-0.455
	c-2.973-0.5-5.339,0.807-6.77,2.74c-6.595,0.592-14.141,3.652-22.641,10.042c-6.723,5.057-0.245,16.507,6.563,11.388
	c14.029-10.544,26.818-11.67,33.8,3.573c2.24,13.091,2.474,26.059,4.215,39.267c1.072,8.146,10.009,8.768,10.009,0
	c0-0.026,0-0.054,0-0.08c0-0.01,0-0.016,0-0.021c0-12.007,0.875-25.497-3.394-37.03c-0.384-2.108,1.228-4.224,0.894-6.338
	c17.719,11.838,29.932,31.091,39.638,51.659c3.48,7.385,13.321,1.651,12.366-5.081c-2.871-20.264-14.163-39.521-29.617-53.923
	c12.185-7.338,23.161-6.584,29.321,7.058c2.227,12.945,5.275,25.057,6.998,38.115c0,0.15,0.046-2.295,0.046-0.295
	c0.027,0,0.056,0,0.082,0c1.369,9,12.891,9,13.094,0c0.008,0-3.428,0-3.428,0s0,1.629,0,1.414c0-0.026,0-0.062,0-0.081
	c0-0.031,0-0.067,0-0.104c0-0.262,1.723-0.282,1.723-0.16c-0.215-12.067-1.489-25.712-5.812-37.238
	c-0.365-2.042-0.266-4.145-0.585-6.19c17.748,11.838,29.574,31.079,39.28,51.659c3.486,7.385,13.126,1.637,12.171-5.096
	c-4.367-30.765-28.372-59.302-56.347-71.873c-0.741-0.331-1.502-0.504-2.29-0.598c-3.765-32.136-1.056-64.645,5.364-96.288
	c0.033-0.155,0.024-0.305,0.047-0.464c56.082-16.724,110.682-39.342,154.521-77.763c33.412-29.277,64.266-68.381,71.577-113.238
	c8.587-52.66-16.505-102.941,15.804-151.456c0.166-0.246,0.266-0.485,0.392-0.729c21.176-6.808,41.286-13.179,59.23-27.049
	c2.826-2.183,2.331-7.057,0-9.332c-15.984-15.568-49.308-13.332-58.493-35.012c-7.037-16.621-11.693-33.123-25.502-45.902
	c-3.511-3.248-7.259-6.339-11.202-9.238c12.202-29.979,38.102-63.224,70.634-69.495c22.122-4.261,32.568,4.893,47.558,19.003
	c7.058,6.643,13.089,10.23,22.652,12.178C941.122,169.184,938.92,111.192,908.111,94.067z M526.924,767.075
	c-3.005-0.514-5.374,0.827-6.802,2.802c-6.375,0.581-13.612,3.515-21.772,9.501c-5.089-3.616-10.438-6.734-15.946-9.213
	c-0.741-0.329-1.522-0.496-2.319-0.591c-3.285-28.062-1.659-56.407,3.097-84.205c3.326-0.812,6.653-1.625,9.995-2.452
	c7.103,30.053,25.114,55.846,35.88,84.611C528.338,767.39,527.653,767.197,526.924,767.075z"/>
</svg>
